<svg height="512" viewBox="0 0 512 512" width="512" xmlns="http://www.w3.org/2000/svg"><g><g><circle cx="248" cy="424" fill="#333" r="64"/><circle cx="248" cy="424" fill="#dff1fc" r="32"/><path d="m247.993 432a8 8 0 0 1 -6.547-12.589l56-80a8 8 0 1 1 13.108 9.176l-56 80a7.99 7.99 0 0 1 -6.561 3.413z" fill="#dae3e8"/><path d="m199.505 319.283c-.175-6.27-11.271-15.665-16.188-20.3-22.723-21.407-23.347-44.723-22.543-76.1.154-6.006 6.7-9.98 12.708-9.81s11.369 4.211 14.675 9.228 4.9 10.939 6.391 16.759c2.341 9.148 4.551 18.329 6.761 27.51l10.491 43.584c.776 3.226 1.558 6.553 1.045 9.831s-2.647 6.533-5.868 7.328-7.377-4.713-7.472-8.03z" fill="#212021"/><path d="m205.8 285.247-26.126 10.084c1.148 1.225 2.354 2.444 3.64 3.656 4.917 4.631 16.013 14.026 16.188 20.3.093 3.317 4.248 8.824 7.47 8.03s5.356-4.05 5.868-7.328-.269-6.605-1.045-9.831q-2.995-12.458-5.995-24.911z" fill="#dff1fc"/><path d="m25 223c8 16 33.042 35.641 40 40 17.259 10.811 27.637 15.7 48 16s43.195-.178 60.558-10.821c7.831-4.8 15.49-10.435 20.254-18.287s6.068-18.376 1.138-26.125c-5.676-8.92-17.921-11.666-28.249-9.4s-19.272 8.469-28.1 14.283-18.256 11.516-28.78 12.53a24.652 24.652 0 0 0 -28.386-7.493c-5.409-13.187-18.166-22.917-32.415-22.741 5.734-10.331 11.579-21.269 17.313-31.6-8.89-10.079-18.551-22-27.441-32.075-6.025 2.984-10.886 8.637-11.517 15.331a20.218 20.218 0 0 0 7.781 17.676c-8.477 14.322-13.744 26.47-10.156 42.722z" fill="#f98800"/><path d="m194.95 223.767a19.193 19.193 0 0 0 -3.485-4.052 48.733 48.733 0 0 1 -16.279 22.4c-9.988 7.8-22.354 12.065-34.847 14.188-37.392 6.356-74.416-6.153-100.995-33.212-1.116-15.958 3.53-31.685 10.712-45.979a33.6 33.6 0 0 1 -18.622-23.953 17.524 17.524 0 0 0 -4.059 9.447 20.218 20.218 0 0 0 7.781 17.676c-8.477 14.318-13.744 26.466-10.156 42.718 8 16 33.042 35.641 40 40 17.259 10.811 27.637 15.7 48 16s43.195-.178 60.558-10.821c7.831-4.8 15.49-10.435 20.254-18.287s6.068-18.376 1.138-26.125z" fill="#c16806"/><path d="m66.333 179.347c-8.89-10.079-18.551-22-27.441-32.075-6.025 2.984-10.886 8.637-11.517 15.331a20.218 20.218 0 0 0 7.781 17.676 115.837 115.837 0 0 0 -7.143 13.728l23.787 11.893c4.837-8.8 9.724-17.889 14.533-26.553z" fill="#333"/><circle cx="201" cy="143" fill="#fad6c6" r="72"/><circle cx="224" cy="168" fill="#f78663" r="16"/><path d="m206.088 136.253a149.658 149.658 0 0 1 64.129-13.064 72.016 72.016 0 1 0 -24.017 75.843c-13.493-2.886-25.915-8.128-38.232-15.23-1.005-15.582-.879-31.968-1.88-47.549z" fill="#eaaa94"/><path d="m281 111c-31.693.784-65.017 11.148-94.794 22.03 2.036 9.258 4.723 20.351 6.759 29.61 22.377 6.018 45.091 15.432 66.811 23.507 6.309-4.722 11.61-9.085 17.919-13.807 4.678 4.087 9.566 6.541 14.243 10.628-2 16.027-12.321 30.443-26.3 38.537-44.359-16.105-105.491-28.421-152.638-30.505l16-16s-9.744-21.58-16-32a43.639 43.639 0 0 0 -8 0s4.1-13.853 5.382-17.738a101.9 101.9 0 0 1 11.667-24.023 100.388 100.388 0 0 1 39.6-35.117c23.8-11.549 52.219-12.765 77.124-4.05 19.956 6.981 40.146 26.59 42.227 48.928z" fill="#fcc200"/><g fill="#f98800"><path d="m129 175-16 16c47.147 2.084 108.28 14.4 152.64 30.5a54.581 54.581 0 0 0 7.567-5.295 373.494 373.494 0 0 0 -145.561-44.17c.854 1.845 1.354 2.965 1.354 2.965z"/><path d="m250.711 67.755a64.227 64.227 0 0 0 -11.935-5.683c-24.9-8.715-53.322-7.5-77.124 4.05a100.388 100.388 0 0 0 -39.6 35.117 101.9 101.9 0 0 0 -11.667 24.023c-1.285 3.885-5.385 17.738-5.385 17.738s.291-.039.857-.079c32.467-46.213 88.443-74.961 144.854-75.166z"/></g><path d="m233 95s-15.2-18.545-24-24c0 0 80.6 6.093 118.853 12.675-4.206-.724-12.39 2.961-16.526 4.016q-8.873 2.263-17.689 4.744-17.946 5.049-35.626 10.985c-22.768 7.646-49.934 21.169-72.012 30.58 1.962-2.517 47-39 47-39z" fill="#dff1fc"/><g fill="#333"><path d="m167.839 262.035c5.147 4.165 12.349 4.333 18.97 4.308l21.854-.083c6.26-.024 12.629-.373 17.953-3.665s8.7-10.744 5-15.791c-3.622-4.937-9.856-6.517-15.92-5.674-8.609 1.2-16.636.465-25.244 1.661 1.949-6.5 2.224-9.469.966-16.142s-6.864-13.056-13.647-12.731c-18.485.887-21.464 38.782-9.932 48.117z"/><path d="m194.3 160.538-73.63 11.611-7.282-21.972a306.043 306.043 0 0 1 75.132-20.6z"/><circle cx="424" cy="296" r="64"/></g><circle cx="424" cy="296" fill="#dff1fc" r="32"/><path d="m320 240s-15.238-8.09-16-8c-.025 0-23.982 7.982-24 8-8 8 0 24 0 32s0 16-8 24c-10.231 10.231-20.255 7.853-33.99 12.4-26.39 8.741-62.01 27.6-78.01 51.6 24-16 33.072-11.011 56-16 2 3.451 8 16 8 16 8 0 42-7 50-23 5.072-10.145 6-17 6-17l32-32h16c0-8-8-48-8-48z" fill="#fcc200"/><path d="m328 248c15.277-22.407 36.886-39.445 64-40-30.408-10.262-65.763.86-88 24z" fill="#f98800"/><path d="m312 288 16 40-16 16-38-7 6-25z" fill="#333"/><path d="m423.993 304a7.975 7.975 0 0 1 -3.758-.943l-118.235-63.057h-57.2l-5.741 10.765a8 8 0 0 1 -14.118-7.53l8-15a8 8 0 0 1 7.059-4.235h64a8 8 0 0 1 3.765.941l120 64a8 8 0 0 1 -3.772 15.059z" fill="#dae3e8"/><path d="m240 152a8 8 0 0 1 -8-8v-8a8 8 0 0 1 16 0v8a8 8 0 0 1 -8 8z" fill="#683b11"/><path d="m231.617 246.8c-3.622-4.937-9.856-6.517-15.921-5.674a134.594 134.594 0 0 1 -14.68.893q-.57 12.135-1.141 24.27l8.788-.033c6.26-.024 12.629-.373 17.954-3.665s8.702-10.74 5-15.791z" fill="#dff1fc"/></g><g><path d="m424 224a71.969 71.969 0 0 0 -59.341 31.285l-22.9-12.212c11.273-13.366 28.041-26.613 50.406-27.073a8 8 0 0 0 2.393-15.578c-31.187-10.522-68.476-1.041-93.879 23.58h-24.416c13.192-10.5 25.088-27.622 22.939-44.39a54.959 54.959 0 0 0 -21.082-15.256 81.144 81.144 0 0 0 -.738-45.211c11.888.816 13.018-7.465 10.235-16.648 12.3-3.393 26.3-7.536 39.01-10.915 10.84 1.067 12.344-13.826 2.583-15.789h-.021c-17.014-2.926-41.938-5.727-64.645-7.958-22.765-19.008-55.481-22.84-83.517-16.87-38.376 8.241-69.59 39.132-80.2 78.092-3.447 11.15-7.765 20.422 4.61 21.926 1.173 3.8 6.812 23.8 9.518 26.755-30.34 27.311 15.4 20.446 32.059 24.271a80.573 80.573 0 0 0 9.224 7.3c-15.055 5.854-27.738 19.288-43.447 23.3a33.289 33.289 0 0 0 -27.168-8.333 44.417 44.417 0 0 0 -24.133-19.4c3.945-9.132 14.219-21.1 12.46-27.962-8.818-12.608-20.185-24.653-30.66-36.322-4.45-2.936-8.628-.556-12.979 2.633-12.866 9.293-14.229 26.437-5.117 38.36-7.304 12.384-13.924 33.932-5.458 48.415 13.277 20.942 40.625 42.18 62.1 51.214 21.32 9.025 58.066 6.855 79.158 1.124 6.585 16 22.434 24.937 30.531 37.386a12.7 12.7 0 0 0 .161 1.5c-12.609 5.812-61.717 47.124-28.292 46.026 20.529-13.613 29.092-11.241 48.276-14.269 1.135 2.267 2.4 4.842 3.444 7-62.763 33.959-45.926 123.919 22.068 135.208 73.531 9.437 110.482-78.691 58.377-125.179l12.961-18.517c8.427 1.948 9.494-2.87 18.225-10.923 7.178-7.011 10.8-9.83 8.6-15.751l-11.529-28.819c21.329 2.139 8.556-24 7.326-40.458l25.974 13.858c-25.492 67.842 49.25 124.9 107.537 86 58.061-41.076 30.186-130.271-40.653-131.4zm-153.326 40.788c9.419 39.116-29.908 29.411-51.406 42.2-2.436-10.108-5.389-22.384-7.888-32.767 15.724.631 32.616-9.677 29.3-26.5l4.12-7.721h25.6c-3.629 7.968-1.429 17.459.274 24.788zm-45.512-13.265c-.749 6.287-10.7 6.8-16.9 6.738l.4-8.5c5.206.398 11.338-3.161 16.5 1.762zm-52.291 4.293c-4.687-3.113-6.952-29.449 4.877-33.852a21.075 21.075 0 0 1 2.147.479c11.239 8.124-6.691 29.208 12.709 28.153l-.363 7.727c-5.817-.031-15.494.623-19.37-2.507zm154.509-20.416-1.464-.781c-1.689-1.807-5.264-3.22-7.787-4.656a83.38 83.38 0 0 1 30.848-15.381 106.934 106.934 0 0 0 -21.597 20.818zm-87.38-11.4c-5.728-.459-8.543 7.1-10.7 11.07-6.611-3.378-15.3-1.587-23.237-1.206a29.187 29.187 0 0 0 -2.5-10.925 79.436 79.436 0 0 0 24.818-4.77c6.847 1.869 13.45 3.817 19.762 5.831zm-107.01-61.892-6.86 1.085-2.783-8.4a300.131 300.131 0 0 1 56.033-15.648c1.095 4.839 2.193 9.524 3.482 15.1q-24.934 3.929-49.872 7.863zm66.739-5.886c-1.22-5.39-2.661-11.5-4.079-17.691 1.459-.642 2.921-1.287 4.411-1.951 23.8-8.262 43.36-13.352 60.936-15.844 6.7 17.477 4.87 39.17-5.215 55.351-17.872-6.763-37.34-14.48-56.053-19.865zm75.639-66.753c-.213.056-.424.12-.635.2a406.169 406.169 0 0 0 -39.567 13.879c10.734-7.229 4.755-13.548-3.841-22.69 15.082 1.3 35.559 3.18 55 5.342q-5.48 1.586-10.957 3.269zm-157.392 38.3c11.924-37.123 47.8-63.931 86.629-63.447-12.437 10.565 11.311 19.738 16.976 29.637-17.663 14.342-27.76 22.7-33.6 27.646a312.046 312.046 0 0 0 -68.069 17.366 8.761 8.761 0 0 0 -4.3-3.535c.946-3.136 1.877-6.186 2.364-7.665zm16.681 52.886a7.978 7.978 0 0 0 1.843-2.9q26.174-4.132 52.35-8.25c21.985 6.609 45.164 15.261 67.164 23.772 8.4 3.448 14.759-6.691 21.645-10.844 1.522 1.079 3.293 2.25 5.553 3.85a45.79 45.79 0 0 1 -18.545 26.376c-41.945-14.524-89.123-24.317-133.552-28.459zm-99.312-17.305a9.752 9.752 0 0 1 2.368-5.237c5.923 6.9 12.576 14.929 18.908 22.273-2.665 4.855-5.19 9.5-8.136 14.912l-9.839-4.92c11.854-16.756-4.286-14.791-3.301-27.028zm77.773 107.65c-31.618.719-64.6-26.794-80.513-50.714a35.7 35.7 0 0 1 .124-14.978l8.435 4.217c-.123 17.6 22.4.312 33.913 29.019 5.306 7.192 13.568-1.237 20.761 2.21 4.969 1.333 6.225 4.634 10.272 7.508 17.783 4.227 37.073-14.654 48.763-20.479-2.954 12.44-3.248 26.633 5.362 37.95-14.274 5.267-31.735 5.502-47.117 5.267zm77.607 23.944c-6.662-5.817-13.046-13.881-16.215-21.467 6.337 1.257 13.961.781 20.435.834 2.517 10.457 5.518 22.935 8.072 33.537-3.079-4.228-7.461-8.456-12.292-12.903zm113.275 129.056c-1.4 57.388-72.643 75.6-102.709 30.861-31.449-49.825 21.748-105.631 71.927-80.837l-9.3 13.288c-46.028-17.743-76.2 41.06-39.524 68.96 41.459 28 84.473-24.923 52.619-59.766l9.3-13.291a55.839 55.839 0 0 1 17.687 40.785zm-32 0c-.436 23.448-28.708 31.7-42.349 15.454-15.387-18.76 2.747-44.611 24.768-38.575-4.226 7.438-25.378 28.024-6.425 31.122 6.626 1.073 15.914-18.282 19.527-21.937a23.863 23.863 0 0 1 4.479 13.936zm10.471-63.194a71.558 71.558 0 0 0 -15.169-6.157 43.087 43.087 0 0 0 10.4-8.832l13.513 2.489zm26.844-25.435-24.03-4.426a64.661 64.661 0 0 0 2.086-7l21.707-21.707 9.535 23.838zm9.785-55.371h-6.977c-5.382.388-5.942 2.91-8 4.562l-29.73 29.731c-3.645 4.236-1.311 5.771-6.3 16.5-5.809 13.768-26.915 18.041-39.3 20.747-9.461-25.119-17.531-12.038-35.314-12.436 54-37.427 89.3-16.674 94.372-60.541 2-8.149-4.642-22.576-2.918-31.781 4.284-1.43 13.433-4.48 18.327-6.108l9.741 5.2c2.131 10.861 4.752 25.059 6.099 34.126zm104.9 72c-39.484 0-65.581-39.5-52.668-75.023l14.327 7.641c-12.056 48.112 50.356 70.7 73.382 30.659 22.364-44.774-35.374-80.341-65.84-44.77l-14.316-7.634c25.6-34.182 75.586-28.418 94.469 6.683 20.187 38.07-7.882 82.43-49.354 82.444zm-3.765-48.941c8.144 4.252 15.8-6.63 9.271-12.865-.417-1.1-20.762-11.165-21.695-11.894 21.027-18.042 49.2 5.593 37.41 28.9-13.538 24.113-48.483 11.372-44.952-14.793z"/><path d="m248 136c.031-8.034-10.9-10.859-14.908-4.037-2 3.892-1.082 9.809-.807 14.163 1.521 6.687 11.126 7.931 14.623 1.911 1.944-2.731.819-9.221 1.092-12.037z"/></g></g></svg>