<svg id="Layer_1" data-name="Layer 1" xmlns="http://www.w3.org/2000/svg" xmlns:xlink="http://www.w3.org/1999/xlink" viewBox="0 0 1028 300"><defs><style>.cls-1,.cls-2{fill:#232323;}.cls-2{opacity:0.79;}.cls-3{fill:#1d1d1b;}.cls-3,.cls-4,.cls-5,.cls-6{fill-rule:evenodd;}.cls-4,.cls-8,.cls-9{fill:#fff;}.cls-10,.cls-6,.cls-7{fill:lime;}.cls-7{font-size:45px;}.cls-7,.cls-8,.cls-9{font-family:Paladins;}.cls-8{font-size:23px;}.cls-9{font-size:10px;}</style></defs><image width="1920" height="534" transform="scale(0.54 0.56)" xlink:href="mtbnow.PNG"/><polygon class="cls-1" points="0 0 0 300 476.77 300 647.32 300 85.14 0 0 0"/><polygon class="cls-1" points="514 0 370.82 0 979.73 300 1028 300 1028 0 514 0"/><rect class="cls-2" width="1028" height="300"/><polygon class="cls-3" points="851.38 182.93 851.34 184.56 855.05 184.56 855 190.39 839.67 190.35 839.67 188.28 839.63 177.1 855 177.1 855 182.93 851.38 182.93 851.38 182.93"/><polygon class="cls-3" points="921.03 187.42 921.03 190.39 914.16 190.27 914.11 177.1 927.54 177.1 927.95 177.3 928.49 177.61 928.99 178 929.44 178.47 929.8 178.98 930.08 179.44 930.08 185.07 929.35 185.7 933.83 189.33 933.42 190.47 924.56 190.35 921.03 187.42 921.03 187.42"/><polygon class="cls-3" points="956.44 183.08 956.49 187.11 956.44 187.26 956.31 187.89 956.08 188.47 955.72 188.98 955.31 189.45 955 189.72 954.63 189.96 954.23 190.16 953.82 190.27 953.55 190.39 942.65 190.39 942.02 190.35 941.43 190.19 940.84 189.96 940.34 189.61 940.25 189.53 940.21 189.45 939.71 188.87 939.53 188.51 939.39 188.16 939.3 187.81 939.39 179.76 939.62 179.33 939.98 178.7 940.48 178.16 941.02 177.69 941.65 177.34 942.06 177.1 953.73 177.1 954.23 177.45 954.86 177.88 955.4 178.43 955.86 179.06 956.17 179.76 956.22 179.88 956.4 180.58 956.44 181.32 956.44 183.08 956.44 183.08"/><polygon class="cls-3" points="965.53 177.1 969.74 177.1 972.32 179.68 975.03 177.1 982.72 177.1 982.99 177.77 975.53 185.07 975.48 190.43 968.65 190.39 968.65 185.07 961.1 177.8 961.37 177.1 965.53 177.1 965.53 177.1"/><polygon class="cls-3" points="901.99 182.93 901.95 184.56 905.61 184.56 905.61 190.39 890.23 190.35 890.19 188.28 890.19 177.1 905.56 177.1 905.61 182.93 901.99 182.93 901.99 182.93"/><polygon class="cls-4" points="841.75 188.28 841.71 179.17 852.92 179.17 852.92 180.81 844.46 180.81 844.42 182.77 849.3 182.77 849.26 184.41 844.42 184.41 844.42 186.64 852.92 186.64 852.92 188.28 841.75 188.28 841.75 188.28"/><polygon class="cls-4" points="916.19 179.17 927.09 179.17 927.36 179.33 927.59 179.52 927.82 179.76 928 179.99 928 184.14 927.36 184.6 926.64 184.88 925.87 185.03 925.1 185 929.26 188.36 925.33 188.28 921.3 185 918.95 185 918.95 188.28 916.24 188.24 916.19 179.17 916.19 179.17"/><polygon class="cls-5" points="918.95 180.85 925.01 180.81 925.46 181.44 925.51 181.67 925.55 181.95 925.55 182.49 925.33 182.88 925.06 183.28 918.95 183.31 918.95 180.85 918.95 180.85"/><polygon class="cls-4" points="942.56 179.17 953.14 179.17 953.46 179.44 953.77 179.76 954.05 180.11 954.23 180.5 954.32 180.93 954.36 181.36 951.61 181.95 951.61 180.85 943.74 180.85 943.78 186.64 951.65 186.64 951.65 184.72 947.4 184.68 947.4 183.04 954.36 183.04 954.41 186.99 954.32 187.26 954.23 187.5 954.09 187.73 953.91 187.93 953.59 188.16 953.23 188.32 942.33 188.32 941.88 188.16 941.7 188 941.52 187.77 941.38 187.46 941.47 180.27 941.65 179.91 942.2 179.37 942.56 179.17 942.56 179.17"/><polygon class="cls-4" points="965.53 179.17 968.88 179.17 972.32 182.57 975.85 179.17 978.56 179.17 973.45 184.18 973.4 188.36 970.74 188.32 970.74 184.18 965.53 179.17 965.53 179.17"/><polygon class="cls-4" points="892.27 188.28 892.27 179.17 903.53 179.17 903.53 180.81 895.03 180.81 894.98 182.77 899.91 182.77 899.87 184.41 894.98 184.41 895.03 186.64 903.53 186.64 903.53 188.28 892.27 188.28 892.27 188.28"/><polygon class="cls-5" points="923.38 153.06 922.93 153.26 922.43 153.38 924.74 155.17 925.01 155.45 925.28 155.8 925.51 156.39 925.6 156.97 925.64 157.6 925.55 158.18 925.46 158.5 924.47 160.72 923.43 162.87 922.3 165.02 921.08 167.1 920.99 167.17 919.86 168.74 918.68 170.22 918.54 170.38 917.5 171.28 916.42 172.14 915.29 172.88 914.07 173.54 913.66 173.7 912.44 173.93 911.22 174.01 909.95 173.9 908.73 173.66 908.28 173.47 907.87 173.19 907.55 172.8 907.33 172.37 907.24 172.1 905.29 170.38 903.35 168.7 902.99 168.35 902.76 167.92 902.63 167.41 902.63 166.9 902.72 166.31 902.94 165.73 903.3 165.22 903.71 164.79 904.21 164.44 904.75 164.16 905.38 164.01 905.97 164.01 906.56 164.12 906.83 164.24 907.1 164.4 908.91 165.69 910.76 166.94 911.17 166.98 911.53 166.9 912.44 165.96 913.16 164.87 913.84 163.34 914.47 161.82 915.02 160.22 915.47 158.61 913.48 158.57 911.53 158.61 911.44 158.73 911.22 159 910.95 159.24 910.63 159.43 910.27 159.55 909.82 159.67 909.32 159.71 908.82 159.71 908.37 159.63 908.01 159.51 907.64 159.36 907.37 159.12 907.1 158.85 905.02 155.92 903.03 152.91 902.8 152.52 902.72 152.09 902.72 151.66 902.76 151.23 903.03 150.56 903.39 149.98 903.71 149.66 904.03 149.39 904.88 148.92 905.7 148.37 906.06 148.18 906.42 148.06 907.28 147.9 908.19 147.94 909.05 147.94 911.72 147.4 914.38 146.73 915.56 146.3 916.15 146.11 916.74 146.03 917.32 146.03 917.91 146.11 918.23 146.19 918.54 146.34 920.67 147.47 922.89 148.49 923.25 148.69 923.56 148.96 923.84 149.27 924.02 149.62 924.11 149.82 924.47 149.16 924.97 148.53 925.46 147.98 926.1 147.51 926.59 147.2 927.09 146.93 927.5 146.81 928 146.73 928.49 146.77 928.95 146.85 929.44 147.04 945.41 146.93 945.5 146.93 946.18 146.73 946.86 146.65 947.26 146.69 947.72 146.77 948.12 146.97 948.53 147.2 948.89 147.47 949.21 147.87 949.75 148.92 950.2 150.01 950.47 151.15 950.61 152.32 950.56 152.75 950.43 153.18 950.2 153.61 949.93 153.92 949.66 154.16 949.34 154.35 948.98 154.55 948.62 154.67 948.26 154.74 947.9 154.78 947.13 154.71 946.72 154.55 946.31 154.31 946 154 945.45 153.22 945.14 152.91 944.78 152.63 944.32 152.48 940.48 152.52 940.43 160.14 940.48 167.76 940.43 168.19 940.34 168.58 940.12 168.97 939.85 169.28 939.44 169.6 939.03 169.83 938.53 169.99 938.08 170.03 937.59 170.03 937.09 169.91 936.63 169.71 936.23 169.44 934.46 168.23 932.75 166.9 932.38 166.51 932.11 166 931.98 165.41 931.93 164.79 931.98 164.16 932.16 163.58 932.34 163.22 932.56 162.87 932.84 162.6 932.93 160.06 932.97 157.56 932.97 155.02 932.88 152.48 929.99 152.48 929.44 152.87 928.54 153.81 928.13 154.31 927.82 154.67 927.45 154.9 927 155.1 926.55 155.14 925.92 155.14 925.33 155.02 924.74 154.74 924.2 154.43 923.88 154.16 923.65 153.81 923.52 153.45 923.38 153.06 923.38 153.06"/><polygon class="cls-4" points="928.81 149.12 945.68 149.04 946.18 148.88 946.54 148.76 946.95 148.72 947.22 148.8 947.44 149 947.85 149.78 948.21 150.64 948.39 151.5 948.53 152.4 948.3 152.56 948.08 152.67 947.81 152.71 947.58 152.67 947.31 152.24 947.04 151.85 946.67 151.5 946.31 151.19 945.91 150.91 945.5 150.68 945.05 150.52 944.55 150.41 938.44 150.44 938.35 159.12 938.4 167.8 938.17 167.92 937.95 167.96 937.67 167.92 937.49 167.76 935.73 166.63 934.1 165.34 934.01 165.06 934.01 164.83 934.1 164.28 934.87 163.46 935.01 160.22 935.05 156.93 935.01 153.69 934.83 150.44 929.31 150.37 928.49 150.95 927.77 151.62 927.05 152.32 926.46 153.06 926.19 153.06 925.92 153.02 925.46 152.79 925.51 152.24 925.6 151.73 925.74 151.27 925.96 150.76 926.19 150.33 926.5 149.9 926.87 149.55 927.27 149.19 927.95 148.84 928.18 148.8 928.4 148.84 928.63 148.96 928.81 149.12 928.81 149.12"/><polygon class="cls-4" points="911.94 151.34 910.67 151.31 909.45 151.34 909.45 151.73 909.5 152.16 911.17 154.71 915.11 154.74 919.09 154.74 919.9 154.35 920.4 154.35 920.94 154.86 923.43 156.78 923.52 157.01 923.56 157.25 923.56 157.48 923.52 157.72 922.62 159.86 921.58 161.94 920.49 164.01 919.31 166 918.23 167.45 917.1 168.89 916.19 169.71 915.24 170.42 914.2 171.08 913.16 171.67 912.21 171.86 911.22 171.9 910.22 171.86 909.27 171.67 909.09 170.97 906.92 169.01 904.66 167.1 904.71 166.9 904.8 166.7 904.93 166.51 905.07 166.35 905.43 166.12 905.88 166.08 907.87 167.49 909.86 168.85 910.59 169.01 911.26 169.05 911.99 168.93 912.66 168.7 913.34 168.07 913.93 167.37 914.52 166.63 914.97 165.84 915.47 164.83 915.97 163.77 916.78 161.58 917.1 160.49 917.41 159.36 917.87 157.09 917.59 156.81 917.23 156.58 913.98 156.5 910.72 156.58 910.18 157.01 909.73 157.56 909.23 157.64 908.77 157.6 906.74 154.74 904.8 151.81 904.88 151.5 905.07 151.23 906.02 150.68 906.92 150.06 907.42 149.98 907.96 150.01 908.64 150.06 909.32 150.01 912.17 149.43 915.02 148.69 916.33 148.22 916.92 148.1 917.5 148.14 918.63 148.76 919.76 149.35 922.07 150.41 922.25 150.84 922.34 151.31 919.76 151.42 917.14 151.46 914.56 151.46 911.94 151.34 911.94 151.34"/><polygon class="cls-5" points="846.18 167.21 846.36 167.41 846.59 167.72 846.77 168.07 846.86 168.42 846.95 168.81 847 169.17 846.95 169.56 846.91 169.91 846.82 170.3 846.68 170.65 846.54 170.97 846.36 171.24 846.14 171.47 845.87 171.67 845.59 171.82 844.83 172.22 844.1 172.68 843.42 173.19 842.79 173.74 842.47 173.97 842.11 174.17 841.43 174.36 840.75 174.36 840.03 174.21 839.4 173.9 838.99 173.58 838.72 173.15 838.49 172.68 838.45 172.14 838.45 156.07 836.5 158.65 834.65 161.27 834.97 161.66 835.19 162.13 835.28 162.64 835.28 163.15 835.1 163.66 834.88 164.16 834.56 164.63 834.2 165.02 833.84 165.26 833.43 165.41 833.02 165.49 832.57 165.49 832.43 165.53 831.98 165.84 831.39 166.2 831.03 166.31 830.67 166.39 830.31 166.43 829.59 166.27 829.27 166.08 828.95 165.84 828.73 165.57 823.84 158.97 823.84 167.6 823.8 168.11 823.61 168.58 823.39 168.89 823.16 169.17 822.89 169.4 822.62 169.6 822.3 169.75 821.94 169.87 821.58 169.95 821.22 169.95 820.81 169.91 820.09 169.64 819.45 169.21 819.09 168.81 818.82 168.31 818.64 167.92 818.41 167.56 818.14 167.21 817.83 166.94 817.6 166.7 817.42 166.43 817.15 165.84 816.97 165.26 816.97 164.63 817.1 164.01 817.37 163.3 817.69 162.64 817.83 162.4 817.87 162.17 817.96 159.71 818.01 157.25 818.01 154.78 817.96 152.32 817.24 151.07 817.06 150.64 817.01 150.21 817.01 149.78 817.15 149.35 817.33 148.96 817.6 148.65 817.96 148.37 818.37 148.18 819 147.9 820.18 147.2 820.72 146.77 821.04 146.54 821.4 146.38 821.76 146.3 822.17 146.26 822.53 146.34 822.94 146.46 823.25 146.65 823.57 146.89 824.75 148.18 825.88 149.51 826.96 150.91 827.96 152.32 831.17 156.7 832.75 154.47 834.42 152.32 836.23 150.29 838.18 148.29 838.22 147.98 838.31 147.59 838.45 147.24 838.67 146.93 838.9 146.65 839.22 146.42 839.58 146.26 839.94 146.19 840.3 146.15 841.34 146.22 842.34 146.42 842.88 146.62 843.88 147.47 844.55 147.94 845.23 148.34 845.96 148.65 846.36 148.84 846.73 149.12 847.04 149.43 847.22 149.86 847.36 150.29 847.45 150.72 847.45 151.66 847.27 152.16 847 152.63 846.59 153.02 846.09 153.26 846.18 167.21 846.18 167.21"/><polygon class="cls-5" points="859.75 147.4 859.8 146.19 859.48 145.75 859.25 145.28 859.16 144.85 859.12 144.43 859.12 144 859.16 143.57 859.25 143.21 859.39 142.9 859.57 142.63 859.84 142.35 860.11 142.16 860.43 141.96 860.75 141.89 861.11 141.81 861.79 141.73 862.46 141.61 862.92 141.38 863.41 141.26 863.91 141.22 864.41 141.3 864.73 141.42 865.04 141.57 865.31 141.81 865.54 142.04 865.72 142.35 865.86 142.67 865.95 143.02 865.99 143.33 865.99 147.83 866.99 147.79 867.44 147.79 868.16 147.83 868.84 147.75 869.47 147.63 870.83 147.55 871.51 147.59 872.14 147.75 872.46 147.9 873.18 148.53 873.68 148.88 874.22 149.19 874.81 149.51 875.08 149.66 875.35 149.86 875.58 150.09 875.76 150.37 875.99 150.91 876.17 151.5 876.21 152.09 876.21 152.67 876.03 153.38 875.58 153.92 875.53 154.08 875.44 154.51 875.17 155.45 875.04 156.43 875.04 157.79 874.95 159.16 874.95 159.28 874.81 159.86 874.67 160.41 874.63 160.88 874.63 161.58 874.54 162.09 874.4 162.56 874.22 163.03 874 163.46 873.73 163.85 873.36 164.24 873 164.56 872.59 164.87 868.84 167.02 868.71 167.06 867.08 167.88 865.54 168.74 865.54 170.3 865.86 170.89 865.95 171.08 866.08 171.59 866.13 172.14 866.08 172.64 865.95 173.15 865.76 173.66 865.45 174.09 865.09 174.48 864.68 174.83 864.23 175.07 863.28 175.26 862.37 175.34 861.42 175.22 860.52 174.99 859.93 174.68 859.48 174.25 859.12 173.7 858.89 173.11 858.8 172.49 858.89 171.86 859.12 171.24 859.48 170.73 859.52 169.32 858.39 168.78 857.31 168.19 856.27 167.53 855.27 166.78 854.5 166.12 853.83 165.41 853.15 164.67 852.51 163.93 851.93 163.11 851.38 162.25 850.88 161.39 850.48 160.49 850.07 159.55 849.75 158.61 849.48 157.68 849.26 156.7 849.12 155.68 848.99 154.71 848.94 153.69 848.99 152.71 848.8 152.44 848.58 151.97 848.49 151.46 848.53 150.95 848.67 150.44 849.08 149.78 849.62 149.23 849.94 148.96 850.34 148.8 850.93 148.57 851.47 148.29 852.02 147.94 852.51 147.55 852.74 147.4 853.01 147.24 853.6 147.08 854.19 147.04 854.77 147.04 855.36 147.16 855.91 147.36 859.75 147.4 859.75 147.4"/><polygon class="cls-4" points="861.7 149.51 861.97 145.36 861.29 144.7 861.2 144.31 861.24 143.88 862.33 143.76 863.46 143.49 863.64 143.33 863.91 143.33 863.91 146.62 863.96 149.94 865.54 149.94 867.17 149.86 868.21 149.9 870.29 149.66 871.33 149.66 871.92 150.17 872.55 150.64 873.23 151.03 873.91 151.38 874.04 151.62 874.13 151.89 874.13 152.44 873.86 152.75 873.68 153.1 873.54 153.45 873.45 153.85 873.14 155.1 872.96 156.35 872.96 157.68 872.87 159 872.77 159.43 872.64 159.86 872.55 160.65 872.55 161.43 872.46 161.9 872.23 162.37 871.92 162.76 871.55 163.07 867.8 165.22 865.63 166.31 863.46 167.53 863.46 169.21 863.5 170.89 863.96 171.78 864.05 172.14 864 172.53 863.82 172.84 863.55 173.07 862.96 173.23 862.42 173.27 861.83 173.19 861.24 173.04 861.11 172.92 860.97 172.76 860.88 172.61 860.88 172.37 860.97 172.22 861.11 172.06 861.29 171.94 861.47 171.9 861.6 169.87 861.6 167.84 860.25 167.33 858.98 166.74 857.76 166 856.59 165.18 855.23 163.93 854.64 163.22 854.05 162.48 853.51 161.74 853.01 160.96 852.6 160.14 852.2 159.28 851.88 158.42 851.61 157.56 851.38 156.66 851.2 155.76 851.02 153.88 851.02 152.99 851.11 152.05 850.57 151.34 850.75 151.03 850.98 150.76 851.79 150.48 852.51 150.09 853.24 149.66 853.87 149.12 854.28 149.12 854.68 149.16 855.09 149.27 855.45 149.43 861.7 149.51 861.7 149.51"/><path class="cls-5" d="M972.86,165.53l-.27.86-.36.78-.45.75-1,1.28-.77.08-.72,0-.68,0-1.18-.19-1.9.08-3.88-.08-1.95-.16-.18.78h-3l-.45-.35-.86-.58-1.81-1-.95-.43-.67-.31-.28-.63-.18-.66,0-.67.13-.66.27-.63.41-.47.09-10.08-1.17.16V151.3l0-1,.14-1.68,1.67,0,.63,0,.59-.16.45-.23.41-.35.54-.36.5-.43.45-.5.64-.12.86-.08.86.08,1.58.31,0,.86,6-.12.63-.15.63,0h.68l.55.47.58.54.5.63.45.63.41.7.32.7.27.75.18.78.14.78.13,1-.81.62-.5.35-.54.28-.64.15-.63.08-1-.12-.5.67L967,157l-.14.74-.09.71,0,.74,0,1.72L965,161h-.68l-.63-.08-1.18-.24-.31-1.25-2.63-.11.14,4.65,1.85.19,1.9.08h1.86l1.9-.15.5-.24.36-.39.27-.47.18-.55.18-1.6h4.12l.31,1.76.45-.2.1-9.1-1.32-.39-.09-1.57.05-.74.18-.66.27-.78.77-.32,1.13-.51,1.13-.54,1.09-.59,1.08-.62.91-.16h1l1.53.2,0,.7.86-.16,5.29-.12,1.18-.23h1.53l.68.27.41.32.36.39.54.47.46.5.4.59.32.63.09.39v.78l-.18.78-.14.35-.18.35-.22.36-.28.19-.18.31-.09.32v.35l.14.58-.27.55-.18.31-.18.28-.23.23-.27.2-.32.19-.32.12-.63.16-.59.27.73,1.41.81,1.37.91,1.32,1,1.25,1,1.22,1.09,1.13,1.17,1.09,1.27,1,.32.24.4.19,3.44,1.45-.23,1.6-3.7.51-.59.15-.59.28-.54.35-.46.47-.36.47-.59.19-.72.08-.68-.08-.68-.19-.63-.32-.81-.78-.77-.86-1.09-1.32-.95-1.37-.9-1.49-.73-1.56-.81-1.45-.9-1.41-.91-1.36-1-1.37-.18-.24-.23-.23-.54-.31-.41,0-.36.08-.36.15-.32.23-.09,10.71-1.81.08-1,0-1-.07-.49-.86-.41-.63-.54-.55-.59-.43-.68-.39-.41-.31-.36-.43-.27-.51Zm-6.51-11.68-.68-.83-.54-.62-2.81-.08-2.76,0,0,2.27,3.26,0,.31-.71,1.09-.11h1.49l.68.08Zm15.83-.47,1-.36,1.08-.27,1.09-.23,1.08-.2.55-.51-.68,0-.68.08-.63.59h-.77l-.64,0-.58-.2-.5.31-.41.32-.4.35-.41.39.86-.27Z"/><polygon class="cls-5" points="899.68 163.54 900.14 164.12 900.5 164.79 900.95 165.84 900.18 166.74 899.23 167.8 898.37 168.93 897.97 169.44 897.33 169.6 896.79 169.71 896.2 169.79 894.21 169.95 894.21 164.59 883.72 156.15 883.67 168.78 882.86 169.32 882.41 169.52 881.96 169.68 881.5 169.75 881.01 169.71 880.37 169.44 879.65 168.93 879.02 168.27 878.47 167.56 878.02 166.74 877.84 166.31 877.71 165.88 877.62 164.94 877.62 164.48 877.8 163.62 877.98 163.19 877.93 151.77 876.85 150.88 877.48 149.55 877.88 148.76 878.29 148.02 879.15 147.83 879.6 147.71 880.06 147.51 880.46 147.28 880.87 146.97 882.05 145.87 894.12 155.72 894.08 145.05 892.4 143.57 894.03 142.16 894.71 141.73 895.39 141.38 896.47 140.95 897.33 141.73 898.55 142.78 899.87 143.76 901.09 144.66 900.5 146.03 900.18 146.57 899.87 147.04 899.68 163.54 899.68 163.54"/><polygon class="cls-3" points="917.5 46.79 917.01 47.38 916.46 47.93 916.19 48.36 915.97 48.79 915.7 50 915.97 50.59 916.19 51.21 916.24 51.76 916.19 52.3 916.06 52.85 915.83 53.36 916.19 53.71 916.46 54.1 916.69 54.57 916.87 55.04 917.01 55.51 917.05 56.02 917.05 56.49 916.96 56.99 916.74 58.01 916.46 59.03 916.37 59.5 916.46 60 916.87 61.37 917.23 62.74 917.55 64.15 917.77 65.55 917.77 66.22 917.59 66.84 917.32 67.43 916.92 67.94 916.15 68.68 916.1 69.66 916.01 70.6 915.83 71.57 915.6 72.51 915.47 73.22 915.38 73.96 915.38 74.66 915.42 75.4 915.88 76.81 916.74 79.23 917.55 81.69 917.68 82.24 917.73 82.83 917.73 83.42 917.68 84 917.55 84.55 917.37 85.1 917.1 85.64 916.83 86.11 915.83 87.52 914.79 88.85 914.61 90.06 914.34 91.27 913.66 92.83 912.89 94.36 912.53 95.06 912.26 95.84 912.08 96.59 911.99 97.41 911.99 97.8 912.08 98.19 912.26 99.09 912.35 99.95 912.35 100.85 912.26 101.75 912.21 102.41 912.21 103.08 912.3 103.7 912.39 104.36 912.71 105.69 912.89 107.02 912.89 108.39 912.8 109.76 912.48 110.42 912.17 110.89 911.85 111.4 911.99 112.85 912.03 114.29 911.9 115.74 911.63 117.18 911.58 117.69 911.58 118.24 911.67 118.79 911.76 119.3 911.9 119.8 912.12 120.31 912.35 120.78 912.66 121.25 912.89 121.64 913.12 122.07 913.25 122.5 913.39 122.97 913.48 123.91 913.43 124.38 913.34 124.84 913.21 125.47 912.98 126.06 912.75 127.15 912.66 128.28 912.48 129.53 912.35 130.12 912.12 130.71 912.26 131.33 912.35 131.72 912.35 132.58 912.26 132.97 911.99 133.6 911.53 134.15 911.53 134.97 911.63 135.71 911.63 136.45 911.53 137.19 911.4 137.94 911.22 138.68 910.95 139.38 910.59 140.05 910.18 140.67 908.73 143.21 908.14 143.84 907.46 144.39 905.97 145.4 904.93 143.96 904.52 143.29 904.25 142.59 904.21 141.81 904.25 141.06 904.43 140.32 904.71 139.62 904.98 138.88 905.11 138.06 905.29 136.77 905.56 135.47 905.56 134.77 905.43 134.11 905.34 133.33 905.16 132.58 904.93 131.8 904.66 131.1 904.3 130.39 903.89 129.69 903.44 129.07 902.94 128.48 902.76 128.13 902.63 127.78 902.44 127.07 902.44 126.33 902.53 125.94 902.63 125.59 903.08 124.73 903.62 123.94 903.26 122.73 903.03 121.48 902.85 120.23 902.8 118.94 902.99 117.11 903.21 115.27 903.3 114.49 903.21 113.75 903.03 113 902.76 112.3 902.4 111.52 902.17 110.7 902.08 109.8 902.04 108.86 902.08 107.92 902.22 107.02 902.4 105.85 902.4 104.68 902.26 104.17 901.99 103.74 901.31 102.72 900.73 101.63 900.54 101.2 900.45 100.77 900.41 100.3 900.41 99.83 900.45 99.36 900.54 98.93 900.73 98.5 900.95 98.07 901.59 96.9 902.17 95.65 902.72 94.4 903.17 93.11 903.39 92.36 903.62 91.58 903.71 90.76 903.8 89.98 903.89 88.93 904.12 87.87 904.43 86.85 904.88 85.88 905.02 85.6 905.11 85.33 905.11 84.7 904.93 83.96 904.75 83.26 904.52 82.56 904.21 81.89 903.85 81.03 903.58 80.13 903.35 79.23 903.21 78.3 903.12 77.36 903.12 76.42 903.17 75.48 903.3 74.58 903.48 73.72 903.62 72.86 903.71 72 903.75 71.1 903.75 70.4 903.62 69.74 903.35 69.07 902.94 68.52 902.63 68.06 902.35 67.55 902.22 67.04 902.13 66.49 902.17 65.67 902.35 64.85 902.76 63.05 902.53 62.55 902.35 61.96 902.22 61.37 902.17 60.78 902.13 59.89 902.17 58.95 902.26 58.05 902.4 57.15 902.58 56.21 902.63 55.23 901.99 54.57 901.31 53.95 900.77 53.2 900.5 52.66 900.32 52.11 900.23 51.48 900.27 50.9 900.41 50.43 900.59 50 900.86 49.61 901.18 49.26 901.36 48.94 901.45 48.59 901.31 47.54 901.09 46.52 900.91 45.74 900.86 44.96 900.59 44.6 900.27 44.33 899.32 43.67 898.87 43.82 898.37 43.9 897.88 43.9 897.42 43.86 896.93 43.71 896.52 43.51 896.11 43.27 895.71 42.96 895.16 42.92 894.66 42.81 894.8 43.27 894.89 43.74 895.03 44.88 894.12 45.5 894.17 46.13 894.26 46.83 894.3 47.54 894.21 48.01 894.08 48.51 893.85 48.94 893.53 49.33 892.9 49.88 892.18 50.31 891.41 50.78 890.68 51.29 890.59 52.27 890.59 54.18 890.64 55.16 891.14 55.47 891.59 55.82 892.31 56.45 892.18 57.42 892 58.44 891.68 59.42 891.27 60.39 890.77 61.29 890.32 62 889.96 62.74 889.87 63.13 889.87 63.95 889.96 64.34 890.28 65.83 890.5 67.39 890.46 68.09 890.37 68.84 890.37 69.11 890.46 69.66 890.59 69.89 891.14 71.06 891.68 72.28 891.91 73.06 892.04 73.92 892.13 74.27 892.31 74.58 893.49 76.14 893.71 76.54 893.94 76.97 894.12 77.4 894.26 77.83 894.3 78.45 894.3 79.04 894.12 79.66 893.9 80.21 892.95 81.85 892.18 83.57 892.04 84.08 892.04 84.59 892.13 85.14 892.31 85.6 892.54 86.11 892.67 86.62 892.67 87.17 892.59 87.72 892.36 88.46 892 89.2 892.4 89.63 892.72 90.1 892.99 90.61 893.22 91.15 893.35 91.7 893.44 92.29 893.44 92.87 893.35 93.42 892.99 94.98 892.45 96.51 891.23 101.24 890.64 102.96 890.5 104.01 890.46 105.03 890.64 106.08 890.91 107.1 891.14 107.84 891.32 108.63 891.45 109.44 891.5 110.27 891.5 111.05 891.45 111.87 891.32 112.65 891.14 113.47 890.91 115.11 890.77 116.79 890.73 118.43 890.82 120.11 890.87 121.41 890.82 122.73 890.73 124.02 890.55 125.31 890.55 125.86 890.68 126.37 890.87 127.03 891 127.7 891.09 128.4 891.09 129.1 891.5 129.93 892.09 130.55 892.22 131.06 892.36 131.8 892.49 132.43 891.68 134.03 892.54 138.68 891.77 139.11 887.56 135.75 886.84 133.64 886.93 132.39 886.93 131.68 886.71 131.1 886.21 130.51 885.85 129.77 885.53 129.03 885.08 127.35 884.67 125.59 884.4 123.87 884.22 122.11 884.13 120.7 883.9 119.33 883.59 117.97 883.18 116.64 882.54 115.23 882 113.75 881.87 113.31 881.77 112.85 881.77 111.95 881.82 111.52 881.91 111.09 882.05 110.66 882.23 110.23 881.77 109.52 881.41 108.78 881.23 108.19 881.14 107.61 881.14 106.98 881.28 106.4 881.55 105.58 880.64 104.83 880.37 104.56 880.1 104.25 879.88 103.89 879.7 103.54 879.56 102.92 879.56 102.33 879.65 101.75 879.74 101.2 879.92 100.65 880.1 100.14 880.33 99.64 880.6 99.13 881.23 98.19 881.55 97.76 881.82 97.33 882.05 96.86 882.23 96.35 882.41 95.34 882.41 94.79 882.36 94.28 882.09 92.68 881.87 90.06 881.87 89.79 881.77 89.51 881.64 89.28 881.46 89.08 881.14 88.65 880.92 88.22 880.74 87.72 880.64 87.21 880.69 86.46 880.87 85.76 881.32 84.47 881.14 83.77 881.05 82.36 881.1 81.69 881.14 80.99 881.05 80.29 880.19 77.24 879.24 74.19 879.06 73.45 878.79 72.78 877.57 70.83 877.16 70.24 876.89 69.58 876.71 68.88 876.57 68.17 876.62 67.39 876.71 66.61 877.98 60.67 878.38 59.46 878.88 58.24 878.61 56.37 878.65 55.7 878.79 55.08 878.97 54.49 878.97 54.22 878.93 53.95 878.65 53.09 878.43 52.27 877.57 51.72 877.21 51.48 876.85 51.21 876.3 50.51 876.08 49.96 875.94 49.33 875.94 48.71 876.08 48.12 876.35 47.34 876.12 46.79 875.9 46.44 875.58 46.21 874.27 45.93 871.37 45.39 869.97 44.99 868.57 44.53 867.66 44.64 866.8 44.72 865.9 44.68 865.4 44.6 865 44.29 864.59 43.78 864.41 43.47 864.32 43.2 864.23 42.85 864.18 42.53 864.18 42.18 864.23 41.87 864.45 41.36 864.73 40.89 865.45 40.03 866.04 39.68 866.63 39.41 867.3 39.25 868.52 39.25 869.52 38.94 870.47 38.47 871.37 38.04 872.32 37.73 873.32 37.49 874.31 37.37 877.52 37.22 877.98 37.14 878.43 37.02 878.88 36.79 879.24 36.52 879.83 36.01 880.6 35.89 881.46 35.19 882.41 34.6 883.09 34.52 883.76 34.6 884.08 34.72 884.4 34.87 884.67 35.03 884.94 35.26 885.3 35.65 885.66 35.97 886.12 36.24 886.62 36.44 891.63 36.63 892.04 36.91 892.45 37.22 892.76 37.57 893.08 37.96 893.58 37.37 894.12 36.91 894.75 36.52 895.43 36.2 895.66 35.46 896.2 35.07 896.7 34.72 897.29 34.52 897.92 34.4 898.51 34.4 899.1 34.48 899.55 34.83 900.32 34.29 901.09 33.86 901.95 33.51 902.8 33.23 906.02 32.68 907.06 32.25 908.01 31.47 908.73 31.08 909.14 30.96 909.54 30.89 910.04 30.89 910.49 30.96 910.9 31.16 911.31 31.39 912.8 32.49 914.38 33.47 915.97 34.36 917.64 35.15 918.14 35.42 918.59 35.85 918.95 36.32 919.18 36.87 919.27 37.37 919.36 37.92 920.17 38 920.58 38.12 921.03 38.31 921.39 38.59 921.75 38.9 921.98 39.17 922.16 39.48 922.3 39.84 922.39 40.19 923.93 39.72 925.42 39.09 926.01 38.78 926.46 38.39 926.82 37.88 927.09 37.34 927.27 36.75 927.77 36.4 928.31 36.05 928.86 35.73 929.49 35.5 930.08 35.26 930.75 34.72 931.48 34.21 932.02 34.01 932.7 33.97 933.38 34.09 934.1 34.29 934.46 34.91 934.74 35.23 935.1 35.42 936.14 35.65 937.22 35.85 937.86 36.05 938.4 36.32 938.9 36.71 939.3 37.18 940.21 38.47 941.88 38.98 941.56 40.62 941.47 41.2 941.88 41.52 942.29 41.91 942.6 42.38 942.83 42.88 943.01 43.47 943.06 44.02 942.97 44.96 942.79 45.89 943.37 46.52 943.55 46.87 943.69 47.18 943.78 47.54 943.83 47.89 943.83 48.47 943.55 48.98 942.29 51.02 942.29 51.8 942.24 52.19 941.97 52.97 941.79 53.32 941.56 53.67 941.34 53.98 940.39 55.04 939.75 57.27 939.21 59.53 938.99 60.12 938.72 60.71 938.44 61.26 938.08 61.8 937.95 62.15 937.76 62.51 937.67 62.86 937.63 63.25 937.76 64.46 937.76 65.71 937.72 66.92 937.54 68.13 938.13 68.6 938.44 68.99 938.67 69.42 938.85 69.85 938.94 70.36 938.85 71.53 938.4 73.88 938.04 75.01 937.67 76.54 937.67 76.85 937.72 77.16 937.81 77.47 937.95 77.75 939.48 80.05 939.89 80.91 940.21 81.77 940.48 82.71 940.66 83.65 940.71 84.59 940.71 85.56 940.62 86.5 940.39 87.44 940.25 88.46 939.94 89.51 939.66 90.22 939.3 90.92 938.94 91.58 938.49 92.25 937.9 93.15 937.86 93.62 937.95 94.08 939.03 96.7 939.26 97.56 939.35 98.46 939.3 99.32 939.08 100.18 938.53 101.32 937.86 102.37 937.59 102.84 937.36 103.31 938.17 105.26 938.44 105.97 938.58 106.71 938.58 107.49 938.49 108.23 938.4 108.63 938.22 109.06 937.86 110.03 937.67 111.09 937.63 112.14 937.72 113.2 938.4 115.54 938.58 116.01 938.44 116.52 938.26 117.26 937.95 118 937.59 118.67 937.18 119.33 936.68 120.74 935.91 121.91 935.23 123.16 934.6 124.45 934.1 125.74 934.15 126.14 934.28 126.45 935.28 127.78 934.01 129.07 933.7 129.81 933.24 130.16 932.79 130.59 930.53 133.56 929.58 133.25 929.44 129.53 929.4 128.44 929.26 127.39 929.13 126.29 928.9 125.23 928.76 124.73 928.72 124.18 928.72 123.63 928.81 123.09 928.86 122.54 928.86 121.99 929.31 119.3 929.26 118.63 929.04 117.97 928.59 116.95 928.18 115.86 928.04 115.47 927.95 115.03 927.91 114.56 927.91 114.14 927.95 113.7 928.04 113.28 928.18 112.85 928.36 112.45 929.04 111.2 929.67 109.92 929.8 109.56 929.8 109.21 929.76 108.86 929.67 108.51 929.44 108 929.26 107.49 929.13 106.94 929.04 106.4 929.08 105.54 929.22 104.64 929.44 103.82 929.8 103 930.17 102.25 930.48 101.47 930.58 100.81 930.62 100.14 930.62 99.44 930.53 98.78 930.44 97.8 930.39 96.78 930.44 95.81 930.58 94.79 930.8 93.46 930.94 92.09 930.94 90.68 930.85 89.32 930.66 88.38 930.44 87.44 930.12 86.5 929.76 85.6 929.49 85.02 929.31 84.39 929.17 83.73 929.08 82.4 929.13 81.77 929.22 81.11 929.35 80.48 930.03 78.37 930.08 78.1 929.99 77.86 929.31 76.5 928.54 75.17 928 74.19 927.59 73.1 927.27 72 927.14 70.87 927.18 70.05 927.27 69.23 927.41 68.41 927.59 67.59 927.68 67.12 927.73 66.65 927.73 66.14 927.68 65.67 927.18 65.12 926.77 64.5 926.64 64.19 926.55 63.91 926.5 63.56 926.5 63.25 926.55 62.94 926.64 62.62 926.73 62.35 926.91 62.08 927.59 61.22 928.72 59.97 928.54 59.57 928.4 59.14 928.31 58.71 928.27 58.24 928.31 57.66 928.45 57.07 928.59 56.52 928.81 55.94 928.63 55.2 928.54 54.77 928.49 54.34 928.49 53.91 928.54 53.52 928.67 52.7 928.76 51.91 928.81 51.09 928.81 50.31 928.76 49.92 928.67 49.57 928.31 48.94 927.95 48.71 927.59 48.55 927.23 48.43 926.82 48.43 924.06 48.4 923.11 48.32 922.16 48.04 921.3 47.65 920.49 47.1 919.95 47.07 918.36 47.1 917.5 46.79 917.5 46.79"/><path class="cls-4" d="M981.73,156.54l-.46,0-.45.12-.41.16-.45.19-.36.27-.36.32-.32.31-.27.39,0,9.54h-.86l-.55-.86-.68-.75-.81-.62-.86-.47-.23-.27-.09-.32.05-.35.09-.31.27-.2.23-.27.18-.27.13-.32v-9.18l.09-1.17-.09-1.18-1.35-.11,0-.32.09-.35,1.13-.47,1.09-.54,1.09-.59,1-.67.49,0h.45v.46l0,.44-.9.42,0,.86.14.86.81-.78.41-.35.9-.62.45-.24.5-.15.54-.12,3.17-.12,3.21,0,1.18-.19.22.19.18.28.41.27.36.31.32.39.23.43,0,.28v.31l-.09.27-.14.24-.31.27-.45.63-.19.39-.09.35,0,.39,0,.43.09.39-.13.16-.14.11-.13.08-.18,0-.82.12-.77.27-.77.35-.63.47-.81,0V156l-.09-.16-.09-.08-.14-.08h-.68l-.63,0-.09.2-.05.15.05.2,0,.15.46.12h.4l.73.2.72.27.59.43.54.55.77,1.48.86,1.45.95,1.41,1,1.33,1.08,1.29,1.18,1.21,1.27,1.09,1.31,1.06.54.39.59.27-.5.08-.5.15-.9.4-.41.27-.4.31-.37.35-.31.36-.27.07-.55-.07-.22-.16-.68-.63-.63-.74-1-1.21-.9-1.33-.81-1.37-.68-1.44-.86-1.49-.91-1.48-.94-1.41-1-1.41-.32-.43-.36-.39-.45-.31-.45-.23-.27-.2-.28-.12-.36,0-.31,0Zm1-1.4,1.89-.55,1-.2,1-.15.37-.12.36-.16.31-.19.32-.28.54-.58.23-.32.18-.31.09-.35.09-.39,0-.35-.05-.39-.13-.36-.23-.31-.86-.15-.9,0H986l-.86.11-.5.28-.4.31-.41-.12-.41-.23-1.08.43-1,.55-.91.74-.45.39-.36.43-.09.47,0,.51-.18.62-.09.67v.66l0,.63,1.76-.67,1.77-.58Z"/><polygon class="cls-4" points="954.05 151.42 953.46 151.27 952.87 151.27 952.92 150.48 953.82 150.41 954.77 150.17 955.4 149.86 955.95 149.39 956.35 149.16 956.76 148.88 957.08 148.61 957.39 148.26 957.94 148.22 958.43 148.26 958.34 148.61 958.39 148.96 958.57 149.27 958.8 149.51 966.75 149.35 967.16 149.19 967.62 149.16 968.07 149.59 968.43 150.06 968.79 150.56 969.11 151.11 969.38 151.66 969.61 152.24 969.74 152.83 969.83 153.45 969.56 153.65 969.29 153.77 968.97 153.88 968.65 153.88 968.34 153.53 968.11 153.14 967.66 152.48 967.12 151.85 966.53 151.15 965.8 150.56 962.46 150.44 959.11 150.48 958.62 150.68 958.21 150.99 957.89 151.38 957.71 151.89 957.62 156.54 963.63 156.46 963.86 156.31 964.09 156.11 964.36 155.64 964.95 155.6 965.53 155.64 965.26 156.5 965.04 157.36 964.9 158.22 964.86 159.12 964.45 159.12 964.04 159.08 963.73 157.52 961.01 157.44 958.34 157.48 957.89 157.87 957.75 158.14 957.66 158.46 957.62 164.59 957.98 164.98 958.39 165.34 958.84 165.65 959.29 165.88 961.37 166.08 963.45 166.16 965.53 166.12 967.62 165.92 968.16 165.73 968.61 165.45 969.06 165.1 969.47 164.71 969.79 164.28 970.06 163.77 970.24 163.26 970.37 162.72 971.23 162.72 971.28 163.34 971.28 163.97 971.19 164.59 971.05 165.22 970.83 165.81 970.55 166.35 970.24 166.9 969.83 167.41 969.24 167.33 968.65 167.21 966.12 167.33 963.59 167.29 961.06 167.21 958.52 166.98 958.34 167.13 958.16 167.37 958.07 167.6 958.07 167.84 957.17 167.84 956.22 167.21 955.22 166.63 953.23 165.61 953.14 165.41 953.14 165.22 953.19 164.98 953.23 164.83 953.5 164.56 953.77 164.24 953.91 163.89 954.05 163.5 954.05 151.42 954.05 151.42"/><polygon class="cls-4" points="897.83 164.44 898.1 164.63 898.37 164.87 898.6 165.18 898.78 165.49 897.83 166.63 896.88 167.8 896.07 167.92 896.07 163.73 881.87 152.24 881.59 167.84 881.01 167.49 880.51 167.02 880.1 166.55 879.74 165.96 879.56 165.45 879.47 164.94 879.56 164.24 879.83 163.62 879.78 150.88 879.15 150.37 879.51 149.66 880.24 149.47 880.92 149.19 881.55 148.8 882.14 148.34 895.98 159.63 896.02 144.43 895.66 144 895.25 143.6 895.66 143.33 896.07 143.1 897.38 144.23 898.78 145.28 898.46 145.79 898.15 145.95 897.88 146.19 897.83 164.44 897.83 164.44"/><polygon class="cls-6" points="907.42 135.75 907.42 134.81 907.28 133.83 907.15 132.97 906.97 132.07 906.74 131.22 906.38 130.35 906.02 129.57 905.56 128.79 905.02 128.05 904.48 127.35 904.34 127.11 904.3 126.84 904.3 126.6 904.34 126.33 904.66 125.7 905.07 125.12 905.38 124.69 905.56 124.18 905.61 123.91 905.56 123.67 905.2 122.54 904.93 121.41 904.75 120.23 904.71 119.06 904.84 117.3 905.07 115.54 905.16 115 905.16 114.49 905.11 113.94 905.07 113.43 904.98 112.89 904.8 112.38 904.62 111.91 904.16 110.89 904.03 110.38 903.94 109.64 903.94 108.86 903.98 108.12 904.07 107.37 904.21 106.63 904.3 105.15 904.25 104.44 904.16 103.93 903.98 103.47 903.75 103.04 903.48 102.61 902.9 101.75 902.44 100.85 902.31 100.42 902.26 99.95 902.35 99.48 903.26 97.76 903.85 96.47 904.43 95.1 904.93 93.73 905.2 92.83 905.43 91.94 905.61 91 905.65 90.06 905.75 89.2 905.93 88.38 906.2 87.56 906.51 86.78 906.79 86.23 906.92 85.6 907.01 85.02 906.97 84.39 906.79 83.53 906.56 82.71 906.24 81.89 905.93 81.11 905.61 80.37 905.38 79.62 905.2 78.88 905.07 78.1 904.98 77.32 904.98 76.54 905.02 75.75 905.11 74.97 905.34 74.03 905.47 73.1 905.65 71.22 905.65 70.67 905.61 70.17 905.52 69.62 905.38 69.11 905.2 68.64 904.98 68.13 904.34 67.27 904.21 67.08 904.12 66.88 904.03 66.65 903.98 66.41 904.03 65.91 904.12 65.4 904.57 63.72 904.66 63.29 904.66 62.9 904.62 62.51 904.48 62.11 904.16 61.41 904.03 60.63 903.98 59.85 904.03 59.06 904.12 58.32 904.25 57.54 904.43 56.33 904.48 55.12 904.48 54.88 904.39 54.65 904.16 54.22 903.71 53.67 903.21 53.2 902.72 52.7 902.31 52.15 902.22 51.95 902.13 51.72 902.08 51.48 902.08 51.25 902.26 50.9 902.49 50.55 902.85 50.12 903.12 49.61 903.26 49.06 903.3 48.51 903.17 47.26 902.9 46.05 902.76 45.39 902.76 44.72 902.72 44.37 902.53 44.06 901.99 43.39 901.36 42.85 899.55 41.52 898.74 41.91 898.46 41.98 898.19 42.02 897.92 42.02 897.65 41.98 897.38 41.87 897.15 41.71 896.97 41.52 896.79 41.28 895.93 41.01 895.71 41.09 895.43 41.09 895.16 41.05 894.94 40.89 894.75 40.73 894.62 40.5 894.57 40.23 894.57 39.99 894.3 39.37 894.71 38.9 895.16 38.51 895.71 38.2 896.29 38 896.65 37.73 896.93 37.37 897.15 36.98 897.29 36.55 897.51 36.4 897.79 36.32 898.06 36.28 898.33 36.28 898.83 36.55 899.37 36.75 899.91 36.75 900.5 36.59 901.09 36.08 901.72 35.65 902.44 35.3 903.21 35.07 906.51 34.48 908.05 33.86 909.09 33.04 909.5 32.88 909.95 32.8 911.63 33.97 913.3 35.03 915.06 36.01 916.87 36.87 917.19 37.06 917.37 37.37 917.46 37.84 917.46 38.31 917.55 39.09 917.68 39.37 917.91 39.56 918.32 39.72 918.73 39.76 919.86 39.84 920.17 40.07 920.44 40.34 920.4 40.73 920.31 41.13 919.59 41.36 918.77 41.44 917.91 42.1 917.1 42.88 916.87 43.16 916.74 43.43 916.64 43.78 916.6 44.1 916.55 44.53 916.46 44.96 916.24 45.35 915.97 45.7 915.11 46.64 914.84 46.99 914.61 47.34 914.38 47.73 914.2 48.16 913.98 48.67 913.71 49.22 913.62 49.53 913.66 49.88 913.84 50.43 914.07 50.94 914.25 51.29 914.38 51.68 914.38 51.99 914.29 52.3 913.8 53.16 913.66 53.44 913.57 53.71 913.57 53.91 913.62 54.1 913.71 54.3 913.89 54.41 914.34 54.77 914.75 55.16 915.02 55.63 915.15 56.13 915.11 56.68 914.93 57.58 914.65 58.44 914.56 58.99 914.52 59.53 914.56 60.08 914.7 60.59 915.06 61.84 915.42 63.13 915.7 64.46 915.92 65.75 915.92 65.98 915.88 66.22 915.74 66.45 915.6 66.65 914.84 67.31 914.38 67.74 914.29 68.02 914.25 68.29 914.25 69.23 914.2 70.17 914.02 71.1 913.8 72 913.62 72.94 913.52 73.88 913.48 74.82 913.57 75.75 913.84 76.61 914.16 77.47 914.97 79.82 915.74 82.2 915.83 82.59 915.88 82.95 915.88 83.34 915.83 83.69 915.74 84.04 915.47 84.74 915.29 85.06 914.38 86.31 913.39 87.48 913.16 87.79 913.03 88.14 912.89 88.53 912.85 88.93 912.71 89.83 912.57 90.68 911.94 92.09 911.26 93.46 910.81 94.36 910.45 95.34 910.22 96.31 910.09 97.33 910.13 97.99 910.27 98.66 910.4 99.36 910.49 100.06 910.49 100.81 910.4 101.51 910.36 102.33 910.36 103.19 910.45 104.01 910.59 104.83 910.86 105.93 910.99 107.06 911.04 108.19 910.99 109.29 910.4 110.19 909.91 111.17 910.13 112.57 910.18 113.98 910.04 115.42 909.82 116.83 909.73 117.54 909.73 118.28 909.82 118.98 909.95 119.69 910.13 120.39 910.4 121.05 910.72 121.72 911.13 122.31 911.4 122.81 911.53 123.32 911.58 123.91 911.49 124.45 911.4 124.96 911.22 125.47 911.04 126.14 910.9 126.84 910.81 127.5 910.76 128.21 910.67 129.14 910.54 129.69 910.31 130.2 910.22 130.47 910.22 130.79 910.45 131.8 910.49 132.11 910.49 132.43 910.4 132.62 910.27 132.74 909.95 132.94 909.63 133.91 909.63 135.12 909.73 135.71 909.73 136.3 909.68 136.92 909.59 137.51 909.41 138.09 909.18 138.64 908.91 139.19 908.59 139.7 907.24 142.12 906.88 142.51 906.42 142.86 906.24 142.55 906.11 142.2 906.06 141.73 906.11 141.3 906.2 140.83 906.38 140.44 906.61 139.89 906.79 139.34 906.97 138.25 907.15 137 907.42 135.75 907.42 135.75"/><polygon class="cls-6" points="888.7 125.08 888.7 126.02 888.88 126.95 889.01 127.42 889.1 127.89 889.15 128.4 889.15 128.87 889.46 130.2 889.74 130.59 889.92 131.02 890.41 131.49 890.55 132.11 890.05 133.05 889.74 133.76 889.87 134.66 890.01 135.32 889.15 134.66 888.74 133.37 888.79 132.54 888.88 131.72 888.65 130.94 888.29 130.04 887.84 129.53 887.34 128.44 886.89 126.84 886.52 125.23 886.25 123.63 886.12 121.99 885.98 120.47 885.71 118.9 885.35 117.38 884.9 115.89 884.26 114.56 883.76 113.16 883.63 112.57 883.63 111.95 883.76 111.36 884.04 110.81 884.17 110.46 884.17 110.07 884.04 109.64 883.81 109.21 883.45 108.63 883.13 108.04 883.04 107.77 883 107.49 883 107.22 883.09 106.94 883.4 105.81 883.45 105.34 883.36 104.87 883.13 104.52 882.82 104.21 881.87 103.43 881.59 103.08 881.46 102.68 881.59 101.82 881.82 100.92 882.23 100.1 882.73 99.36 883.13 98.78 883.49 98.15 883.76 97.52 884.04 96.82 884.17 96.16 884.26 95.41 884.31 94.71 884.22 94.01 883.95 92.44 883.76 89.94 883.67 89.36 883.49 88.77 883.22 88.22 882.82 87.75 882.63 87.48 882.5 87.13 882.54 86.74 882.63 86.35 883.04 85.14 883.13 84.86 883.18 84.55 883.18 84.24 883.13 83.92 883 83.42 882.95 82.91 882.95 81.85 883 80.88 882.86 79.86 882 76.77 881.05 73.72 880.83 72.78 880.46 71.92 879.78 70.83 879.06 69.77 878.84 69.38 878.65 68.95 878.52 68.52 878.43 68.09 878.52 66.92 879.78 61.18 880.15 60.16 880.55 59.18 880.74 58.56 880.78 57.89 880.51 56.6 880.51 55.82 880.6 55.47 880.78 55.08 880.83 54.65 880.87 54.18 880.69 53.32 880.42 52.5 880.19 51.72 880.1 51.44 879.97 51.17 879.6 50.78 878.52 50.12 878.2 49.88 877.93 49.57 877.84 49.37 877.8 49.14 877.8 48.94 877.84 48.71 878.16 47.81 878.25 47.38 878.2 46.91 877.84 46.05 877.57 45.54 877.16 45.07 876.71 44.72 876.17 44.45 874.59 44.06 873.23 43.86 871.87 43.55 870.51 43.2 869.2 42.77 868.93 42.69 868.62 42.65 867.94 42.69 867.3 42.81 866.71 42.88 866.17 42.85 866.04 42.65 865.99 42.38 866.26 41.91 866.67 41.48 866.94 41.28 867.21 41.16 867.48 41.09 867.8 41.09 868.34 41.13 868.88 41.09 870.15 40.7 870.78 40.42 871.37 40.11 872.1 39.76 872.82 39.52 873.59 39.33 874.36 39.21 877.62 39.09 878.38 38.98 879.15 38.74 879.88 38.39 880.51 37.92 880.87 37.88 881.23 37.8 881.68 37.45 882.09 37.06 882.54 36.67 883.04 36.36 883.31 36.36 883.54 36.48 884.08 37.1 884.76 37.61 885.53 38.04 886.3 38.31 890.91 38.39 891.18 38.59 891.41 38.82 891.68 39.37 892.09 40.62 892.36 41.52 892.45 41.63 892.45 41.79 892.4 41.91 892.31 42.02 892.18 42.26 892.22 42.49 892.86 43.39 892.95 43.67 893.04 43.98 892.72 44.21 892.49 44.53 892.36 44.84 892.27 45.23 892.27 45.85 892.36 46.48 892.4 46.95 892.4 47.46 892.36 47.77 892.18 48.04 891.77 48.4 891.32 48.67 890.46 49.14 889.64 49.73 889.33 50 889.06 50.31 888.79 51.09 888.7 52.3 888.65 53.48 888.65 54.69 888.74 55.86 888.97 56.6 889.87 56.88 890.32 57.19 890.19 58.01 889.96 58.79 889.6 59.53 889.19 60.28 888.65 61.18 888.2 62.11 888.06 62.78 887.97 63.44 888.02 64.11 888.15 64.81 888.42 66.14 888.6 67.51 888.6 68.02 888.56 68.52 888.51 69.11 888.56 69.66 888.7 70.24 888.92 70.75 889.46 71.85 889.92 72.94 890.1 73.53 890.19 74.07 890.28 74.5 890.41 74.93 890.59 75.33 890.87 75.72 891.95 77.24 892.22 77.71 892.4 78.26 892.45 78.49 892.45 78.77 892.36 79.04 892.27 79.27 891.77 80.13 891.27 81.03 890.87 81.93 890.46 82.87 890.32 83.3 890.19 83.77 890.14 84.24 890.14 84.7 890.32 85.64 890.46 86.11 890.68 86.5 890.82 86.89 890.77 87.25 890.64 87.79 890.37 88.26 890.01 89.04 889.92 89.39 889.96 89.79 890.1 90.02 890.32 90.25 890.64 90.49 890.96 90.8 891.18 91.11 891.36 91.47 891.5 91.86 891.54 92.25 891.54 92.68 891.5 93.07 891.14 94.52 890.68 95.92 889.46 100.61 888.83 102.49 888.7 103.11 888.6 103.78 888.6 105.11 888.65 105.77 888.79 106.44 888.97 107.1 889.15 107.72 889.37 108.35 889.51 109.02 889.6 109.68 889.64 110.34 889.64 111.05 889.6 111.71 889.33 113.04 889.06 114.8 888.88 116.64 888.88 118.43 888.97 120.23 889.01 121.44 888.97 122.66 888.88 123.87 888.7 125.08 888.7 125.08"/><polygon class="cls-6" points="928.86 37.92 929.63 37.45 930.39 37.14 931.03 36.98 931.66 36.52 932.65 35.85 933.02 36.32 933.47 36.71 934.01 37.02 934.6 37.22 935.73 37.49 936.91 37.69 937.18 37.77 937.4 37.88 937.59 38.04 937.76 38.27 938.4 39.21 938.72 39.64 938.94 39.88 939.21 40.07 939.44 40.19 939.75 40.31 939.66 40.7 939.53 41.09 939.3 41.56 939.3 41.87 939.39 42.14 939.8 42.45 940.25 42.69 940.57 42.88 940.84 43.12 940.98 43.31 941.11 43.55 941.16 43.78 941.16 44.02 941.11 44.8 940.93 45.58 940.84 46.05 940.8 46.52 941.02 46.83 941.29 47.07 941.61 47.42 941.88 47.77 940.8 49.69 940.57 50.08 940.43 50.51 940.34 50.98 940.34 51.8 940.3 52.15 940.16 52.46 939.94 52.73 938.99 53.79 938.76 54.14 938.58 54.57 937.95 56.76 937.4 58.99 937.04 59.89 936.27 61.22 936.05 61.72 935.87 62.23 935.73 62.78 935.73 63.17 935.77 63.56 935.87 64.69 935.91 65.79 935.82 66.88 935.68 67.98 935.64 68.88 935.87 69.19 936.18 69.46 936.82 69.97 937 70.17 937.09 70.4 936.82 72.43 936.54 73.45 936.27 74.43 936 75.33 935.82 76.22 935.82 76.89 935.87 77.55 936.09 78.18 936.41 78.77 937.86 80.99 938.22 81.69 938.49 82.44 938.67 83.22 938.8 83.96 938.85 84.74 938.85 85.56 938.72 86.35 938.58 87.09 938.44 87.99 938.17 88.89 937.95 89.47 937.63 90.1 937.31 90.68 936.59 91.78 936.18 92.25 936.05 92.87 936 93.54 936.05 94.16 936.23 94.79 937.27 97.37 937.4 97.92 937.49 98.46 937.45 99.01 937.36 99.52 936.91 100.42 936.36 101.28 935.91 101.98 935.59 102.72 935.5 103.04 935.5 103.35 935.55 103.66 935.64 103.97 936.45 106.05 936.59 106.52 936.68 107.02 936.68 107.53 936.59 108.04 936.32 108.7 936.14 109.37 935.96 110.07 935.82 110.77 935.77 111.48 935.77 112.89 935.87 113.59 936.63 116.13 936.45 116.75 936.18 117.38 935.87 117.93 935.46 118.47 935.05 119.84 934.24 121.13 933.47 122.46 932.84 123.87 932.29 125.27 932.25 125.86 932.29 126.49 932.47 127.03 932.79 127.58 932.38 128.09 932.11 128.68 931.71 129.03 931.3 129.46 931.25 128.28 931.12 127.11 930.94 125.94 930.71 124.77 930.62 124.45 930.58 124.1 930.62 123.75 930.62 123.4 930.71 122.69 930.71 121.99 931.07 119.96 931.16 119.61 931.21 119.22 931.16 118.71 931.07 118.16 930.94 117.65 930.75 117.14 930.3 116.21 929.9 115.23 929.8 114.76 929.76 114.29 929.8 113.78 929.99 113.35 930.71 112.03 931.39 110.66 931.52 110.31 931.62 109.92 931.66 109.56 931.71 109.17 931.62 108.39 931.07 106.98 930.94 106.28 930.94 105.65 931.03 105.03 931.21 104.44 931.48 103.89 931.93 102.92 932.29 101.94 932.43 101.08 932.47 100.22 932.47 99.36 932.38 98.54 932.29 97.68 932.29 96 932.38 95.14 932.65 93.66 932.79 92.13 932.84 90.61 932.7 89.12 932.52 87.99 932.25 86.93 931.89 85.88 931.43 84.82 931.25 84.39 931.12 83.92 931.03 83.45 930.98 82.95 930.94 82.48 930.98 81.97 931.03 81.5 931.16 81.03 931.84 78.88 931.93 78.41 931.93 77.98 931.84 77.51 931.71 77.08 930.94 75.64 930.12 74.19 929.67 73.41 929.35 72.59 929.13 71.73 928.99 70.83 929.04 70.17 929.13 69.46 929.22 68.8 929.4 68.09 929.58 67.43 929.67 66.69 929.67 65.98 929.63 65.28 929.53 65.05 929.4 64.81 928.81 64.15 928.59 63.91 928.4 63.64 928.36 63.37 928.45 63.13 928.95 62.51 930.44 60.86 930.66 60.47 930.85 60.08 930.85 59.85 930.8 59.61 930.71 59.42 930.35 59.03 930.17 58.56 930.17 57.85 930.26 57.42 930.39 56.99 930.58 56.6 930.71 56.17 930.71 55.78 930.39 54.65 930.35 54.26 930.35 53.87 930.53 52.97 930.62 52.07 930.66 51.13 930.66 50.23 930.58 49.53 930.39 48.83 930.08 48.16 929.63 47.61 928.99 47.15 928.31 46.83 927.54 46.6 926.77 46.56 924.11 46.52 923.43 46.48 922.75 46.28 922.16 46.01 921.62 45.62 921.39 45.47 921.17 45.39 920.49 45.23 918.59 45.23 918.36 45.11 918.14 44.96 918.27 44.41 918.45 44.02 918.73 43.67 919.04 43.35 919.36 43.08 919.72 42.85 920.13 42.65 920.58 42.49 920.99 42.42 922.34 42.14 923.65 41.79 924.92 41.32 926.19 40.81 926.64 40.58 927.09 40.31 927.86 39.64 928.18 39.25 928.45 38.82 928.67 38.39 928.86 37.92 928.86 37.92"/><polygon class="cls-3" points="865.63 177.1 868.39 177.1 874.18 181.01 874.13 177.1 880.74 177.1 880.74 190.35 875.9 190.35 870.15 186.44 870.15 190.39 863.59 190.35 863.55 177.1 865.63 177.1 865.63 177.1"/><polygon class="cls-4" points="844.15 167.88 844.83 168.78 844.87 169.09 844.87 169.36 844.83 169.68 844.74 169.95 843.83 170.42 842.97 170.97 842.11 171.55 841.39 172.22 841.16 172.29 840.94 172.29 840.71 172.25 840.53 172.14 840.53 150.44 838.22 153.06 836.05 155.76 833.97 158.57 832.03 161.47 832.25 161.86 832.52 162.17 832.84 162.48 833.2 162.8 833.07 163.15 832.84 163.42 832.34 163.42 831.85 163.5 831.39 163.73 830.99 164.01 830.4 164.36 821.76 152.63 821.76 167.6 821.58 167.8 821.31 167.88 820.99 167.76 820.76 167.6 820.49 166.98 820.13 166.39 819.68 165.84 819.18 165.34 819.05 164.98 819.05 164.79 819.09 164.63 819.27 164.16 819.5 163.69 819.68 163.38 819.82 163.03 819.91 162.68 819.95 162.33 820.04 159.67 820.09 157.01 820.09 154.39 820 151.73 819.09 150.09 819.91 149.78 820.63 149.35 821.4 148.88 822.08 148.34 823.21 149.59 824.29 150.84 825.29 152.16 826.24 153.53 831.26 160.37 832.21 158.89 833.16 157.44 834.2 156 835.28 154.59 836.37 153.26 837.54 151.93 839.99 149.43 840.17 148.84 840.3 148.22 841.07 148.26 841.84 148.41 842.61 149.12 843.42 149.7 844.33 150.21 845.28 150.6 845.37 150.95 845.37 151.31 844.01 151.77 844.15 167.88 844.15 167.88"/><polygon class="cls-3" points="863.59 150.64 865.09 150.64 866.58 150.8 867.98 151.15 869.38 151.62 869.65 152.56 869.84 153.53 869.93 154 869.97 154.47 869.97 154.98 869.93 155.45 869.79 157.36 869.75 159.28 869.7 159.86 869.61 160.45 869.43 161.04 869.16 161.58 868.84 162.09 868.48 162.56 868.03 162.99 867.57 163.38 866.31 164.24 865.67 164.59 864.95 164.91 864.18 165.18 863.37 165.26 863.41 157.95 863.59 150.64 863.59 150.64"/><polygon class="cls-3" points="861.24 150.44 861.15 164.71 860.07 163.81 859.07 162.84 858.17 161.78 857.35 160.65 856.63 159.47 856 158.22 855.5 156.89 855.14 155.56 854.91 154.74 854.77 153.88 854.77 153.02 854.87 152.16 855.09 151.77 855.45 151.46 855.82 151.27 856.27 151.15 856.59 151.38 856.99 151.58 857.35 151.66 857.76 151.7 858.44 151.15 859.07 150.44 861.24 150.44 861.24 150.44"/><polygon class="cls-4" points="865.63 179.17 867.75 179.17 876.3 185 876.21 179.17 878.65 179.17 878.65 188.28 876.53 188.28 868.07 182.49 868.07 188.28 865.63 188.28 865.63 179.17 865.63 179.17"/><text class="cls-7" transform="translate(31.63 58.01)">QUOTES CONTEST</text><text class="cls-8" transform="translate(30.95 103.12)">HELP US TO CREATE <tspan x="0" y="27.6">OUR NEW COMMERCIAL !</tspan></text><text class="cls-9" transform="translate(28.04 182.41)">THE WINNER WILL HAVE THE CHANCE <tspan x="0" y="12">TO PARTICIPATE TO MONSTER ENERGY TOUR. </tspan><tspan x="0" y="36" xml:space="preserve"> SEND YOUR SLOGAN  BELOW TO KNOW </tspan><tspan x="0" y="48">IF YOU ARE THE CHOOSEN ONE,</tspan></text><rect class="cls-10" x="32" y="149" width="305" height="3"/></svg>